<svg width="800" height="960" viewBox="0 0 800 960" fill="none" xmlns="http://www.w3.org/2000/svg">
  <rect width="800" height="960" rx="48" fill="#F8F2E8"/>
  <rect x="26" y="26" width="748" height="908" rx="36" stroke="#C9DCCF" stroke-width="2"/>
  <path d="M0 0H800V220C676 262 541 282 400 282C259 282 124 262 0 220V0Z" fill="url(#sky)"/>
  <circle cx="608" cy="196" r="92" fill="#FEF6ED" fill-opacity="0.92"/>
  <path d="M42 122H758" stroke="#D8E6DC" stroke-width="1.5" stroke-dasharray="6 8"/>
  <path d="M42 838H758" stroke="#D8E6DC" stroke-width="1.5" stroke-dasharray="6 8"/>
  <path d="M94 116V844" stroke="#D8E6DC" stroke-width="1.5" stroke-dasharray="6 8"/>
  <path d="M706 116V844" stroke="#D8E6DC" stroke-width="1.5" stroke-dasharray="6 8"/>
  <path d="M0 688C73 640 148 614 226 610C314 605 392 648 458 650C524 652 571 626 646 618C701 611 752 626 800 656V960H0V688Z" fill="#D6E9E0"/>
  <path d="M0 760C90 700 180 679 272 682C355 685 421 741 494 744C563 747 621 706 708 698C741 695 772 698 800 706V960H0V760Z" fill="#B5D5C7" fill-opacity="0.9"/>
  <path d="M126 551C201 476 247 440 316 440C398 440 454 510 530 510C593 510 642 470 690 424L705 433C670 491 610 562 530 588C453 613 356 604 290 580C221 554 171 560 126 551Z" fill="#E8D0D8" fill-opacity="0.75"/>
  <path d="M262 610C273 528 323 474 400 474C477 474 526 528 538 610L556 760H244L262 610Z" fill="#4B6873" fill-opacity="0.86"/>
  <circle cx="400" cy="393" r="86" fill="#F6D4CA"/>
  <path d="M309 353C338 309 367 287 400 287C433 287 462 309 492 353C458 335 427 326 400 326C373 326 343 335 309 353Z" fill="#29484A"/>
  <path d="M296 361C325 321 359 303 400 303C441 303 475 321 504 361C496 448 462 510 400 510C338 510 304 448 296 361Z" fill="#F4D3C9" fill-opacity="0.72"/>
  <path d="M275 371C284 322 329 272 400 272C471 272 516 322 525 371C497 334 456 314 400 314C344 314 303 334 275 371Z" fill="#264246"/>
  <path d="M170 228C151 283 132 333 112 377" stroke="#8FB29E" stroke-width="6" stroke-linecap="round"/>
  <path d="M136 276C182 293 214 315 229 342" stroke="#8FB29E" stroke-width="4" stroke-linecap="round"/>
  <path d="M120 322C160 336 188 355 204 379" stroke="#8FB29E" stroke-width="4" stroke-linecap="round"/>
  <text x="400" y="818" fill="#29484A" font-size="56" font-family="serif" text-anchor="middle">蓝诗亦 · 沐谦</text>
  <text x="400" y="874" fill="#557776" font-size="24" font-family="serif" text-anchor="middle">真人照待补位 / 园林意境先值班</text>
  <defs>
    <linearGradient id="sky" x1="400" y1="0" x2="400" y2="282" gradientUnits="userSpaceOnUse">
      <stop stop-color="#DDEDF3"/>
      <stop offset="0.55" stop-color="#E4F0E7"/>
      <stop offset="1" stop-color="#F8F1E8"/>
    </linearGradient>
  </defs>
</svg>
