<svg width="720" height="880" viewBox="0 0 720 880" fill="none" xmlns="http://www.w3.org/2000/svg">
  <rect width="720" height="880" rx="40" fill="#F8F1E8"/>
  <rect x="20" y="20" width="680" height="840" rx="30" stroke="#D9E3DA" stroke-width="2"/>
  <path d="M78 118H642" stroke="#D8E6DC" stroke-width="1.5" stroke-dasharray="6 8"/>
  <path d="M78 764H642" stroke="#D8E6DC" stroke-width="1.5" stroke-dasharray="6 8"/>
  <rect x="110" y="166" width="500" height="336" rx="26" fill="#EEF6F7"/>
  <rect x="130" y="186" width="460" height="296" rx="22" fill="#D9F0E9"/>
  <circle cx="222" cy="256" r="46" fill="#FBE4EE"/>
  <circle cx="500" cy="246" r="36" fill="#CFE4F2"/>
  <circle cx="430" cy="304" r="28" fill="#FCE8D7"/>
  <path d="M180 412C232 360 276 336 318 336C370 336 408 392 456 392C493 392 530 368 570 330V482H150L180 412Z" fill="#A1CBB7"/>
  <rect x="164" y="560" width="392" height="128" rx="26" fill="#FFF8F2"/>
  <text x="360" y="618" fill="#2A484A" font-size="44" font-family="serif" text-anchor="middle">可爱壁纸精神投影</text>
  <text x="360" y="664" fill="#577876" font-size="22" font-family="serif" text-anchor="middle">靠谱和可爱并不冲突，谁规定君子不能萌一点。</text>
  <path d="M214 730C250 696 290 680 332 680C380 680 420 698 470 734" stroke="#E3BCC8" stroke-width="16" stroke-linecap="round"/>
  <circle cx="280" cy="718" r="12" fill="#E3BCC8"/>
  <circle cx="442" cy="718" r="12" fill="#E3BCC8"/>
</svg>
