<svg width="720" height="880" viewBox="0 0 720 880" fill="none" xmlns="http://www.w3.org/2000/svg">
  <rect width="720" height="880" rx="40" fill="#F8F1E8"/>
  <rect x="20" y="20" width="680" height="840" rx="30" stroke="#D5E3DA" stroke-width="2"/>
  <path d="M0 0H720V260C605 292 484 308 360 308C236 308 115 292 0 260V0Z" fill="url(#day)"/>
  <circle cx="552" cy="170" r="84" fill="#FFF8EA" fill-opacity="0.96"/>
  <path d="M0 566C102 518 190 494 272 496C365 499 434 559 508 559C578 559 641 528 720 490V880H0V566Z" fill="#D7E8DF"/>
  <path d="M0 650C105 606 194 590 280 594C368 599 438 646 520 650C591 653 648 633 720 606V880H0V650Z" fill="#B2D3C6"/>
  <path d="M84 208C134 203 177 214 216 245C255 276 305 300 362 300C421 300 470 276 509 245C548 214 592 203 642 208" stroke="#D6C2AA" stroke-width="8" stroke-linecap="round"/>
  <path d="M138 226C131 319 146 392 188 480" stroke="#8EB29C" stroke-width="6" stroke-linecap="round"/>
  <path d="M560 238C575 315 575 390 546 460" stroke="#8EB29C" stroke-width="6" stroke-linecap="round"/>
  <path d="M170 520C220 490 274 472 334 472C405 472 458 496 518 536" stroke="#E8C8D4" stroke-width="18" stroke-linecap="round"/>
  <text x="360" y="776" fill="#29484A" font-size="42" font-family="serif" text-anchor="middle">晴天出门限定款</text>
  <text x="360" y="822" fill="#577876" font-size="22" font-family="serif" text-anchor="middle">明亮、轻盈、带一点戏剧效果，就是今天的心情底色。</text>
  <defs>
    <linearGradient id="day" x1="360" y1="0" x2="360" y2="260" gradientUnits="userSpaceOnUse">
      <stop stop-color="#DDECF4"/>
      <stop offset="0.62" stop-color="#E9F3EB"/>
      <stop offset="1" stop-color="#F8F1E8"/>
    </linearGradient>
  </defs>
</svg>
