<svg width="720" height="880" viewBox="0 0 720 880" fill="none" xmlns="http://www.w3.org/2000/svg">
  <rect width="720" height="880" rx="40" fill="#F8F1E8"/>
  <rect x="20" y="20" width="680" height="840" rx="30" stroke="#D5E2DA" stroke-width="2"/>
  <path d="M0 0H720V270H0V0Z" fill="url(#lakeSky)"/>
  <path d="M0 444C97 420 184 412 260 420C336 428 386 464 452 467C526 471 612 430 720 390V880H0V444Z" fill="#E5EEF1"/>
  <path d="M0 580C103 530 205 508 302 514C416 522 480 603 582 603C625 603 670 589 720 562V880H0V580Z" fill="#CAE2D9"/>
  <path d="M0 650C103 614 194 604 278 608C370 613 436 662 506 668C577 674 647 646 720 616V880H0V650Z" fill="#9FC3BE"/>
  <circle cx="580" cy="150" r="78" fill="#FFF6E9" fill-opacity="0.94"/>
  <path d="M145 252C142 435 175 597 242 738" stroke="#85AB96" stroke-width="7" stroke-linecap="round"/>
  <path d="M183 336C248 361 291 394 311 438" stroke="#85AB96" stroke-width="4" stroke-linecap="round"/>
  <path d="M190 420C255 441 292 467 308 500" stroke="#85AB96" stroke-width="4" stroke-linecap="round"/>
  <path d="M418 621C442 592 468 578 499 578C530 578 558 595 584 629" stroke="#4F6D76" stroke-width="10" stroke-linecap="round"/>
  <path d="M402 734C417 646 457 602 500 602C543 602 583 646 598 734" stroke="#4F6D76" stroke-width="16" stroke-linecap="round"/>
  <text x="360" y="786" fill="#284748" font-size="42" font-family="serif" text-anchor="middle">傍晚散步预备图</text>
  <text x="360" y="830" fill="#557776" font-size="22" font-family="serif" text-anchor="middle">风一吹，脑袋就从“吵”切回“还能聊”。</text>
  <defs>
    <linearGradient id="lakeSky" x1="360" y1="0" x2="360" y2="270" gradientUnits="userSpaceOnUse">
      <stop stop-color="#DDECF4"/>
      <stop offset="1" stop-color="#ECF3EC"/>
    </linearGradient>
  </defs>
</svg>
